HIERARCHY
ROOT Pelvis
{
	OFFSET 0.000000 0.000000 0.000000
	CHANNELS 6 Xposition Yposition Zposition Xrotation Yrotation Zrotation
	JOINT LeftUpLeg_virtual
	{
		OFFSET 0.000000 0.000000 0.000000
		CHANNELS 3 Xrotation Yrotation Zrotation
		JOINT LeftUpLeg
		{
			OFFSET 8.479700 -4.795502 -0.379100
			CHANNELS 3 Xrotation Yrotation Zrotation
			JOINT LeftLeg
			{
				OFFSET 0.024144 -32.555107 0.112900
				CHANNELS 3 Xrotation Yrotation Zrotation
				JOINT LeftFoot
				{
					OFFSET -0.024144 -32.638630 -3.012600
					CHANNELS 3 Xrotation Yrotation Zrotation
					JOINT LeftToeBase
					{
						OFFSET 0.970200 -13.225400 11.864200
						CHANNELS 3 Xrotation Yrotation Zrotation
						End Site
						{
							OFFSET 0 0 0
						}
					}
				}
			}
		}
	}
	JOINT RightUpLeg_virtual
	{
		OFFSET 0.000000 0.000000 0.000000
		CHANNELS 3 Xrotation Yrotation Zrotation
		JOINT RightUpLeg
		{
			OFFSET -8.479700 -4.795502 -0.379100
			CHANNELS 3 Xrotation Yrotation Zrotation
			JOINT RightLeg
			{
				OFFSET -0.023144 -32.555092 0.112900
				CHANNELS 3 Xrotation Yrotation Zrotation
				JOINT RightFoot
				{
					OFFSET 0.023144 -32.638641 -3.012700
					CHANNELS 3 Xrotation Yrotation Zrotation
					JOINT RightToeBase
					{
						OFFSET -0.970200 -13.225400 11.864200
						CHANNELS 3 Xrotation Yrotation Zrotation
						End Site
						{
							OFFSET 0 0 0
						}
					}
				}
			}
		}
	}
	JOINT Hips_virtual
	{
		OFFSET 0.000000 0.000000 0.000000
		CHANNELS 3 Xrotation Yrotation Zrotation
		JOINT Hips
		{
			OFFSET -0.000000 -0.000000 -0.000000
			CHANNELS 3 Xrotation Yrotation Zrotation
			JOINT Spine
			{
				OFFSET 0.000000 7.722000 1.166200
				CHANNELS 3 Xrotation Yrotation Zrotation
				JOINT Spine1
				{
					OFFSET 0.000000 12.024101 0.248800
					CHANNELS 3 Xrotation Yrotation Zrotation
					JOINT Spine2
					{
						OFFSET 0.000000 11.502998 -0.491200
						CHANNELS 3 Xrotation Yrotation Zrotation
						JOINT Neck_virtual
						{
							OFFSET 0.000000 0.000000 0.000000
							CHANNELS 3 Xrotation Yrotation Zrotation
							JOINT Neck
							{
								OFFSET 0.000000 18.430702 -3.123100
								CHANNELS 3 Xrotation Yrotation Zrotation
								JOINT Head
								{
									OFFSET 0.000000 9.051102 1.034000
									CHANNELS 3 Xrotation Yrotation Zrotation
									End Site
									{
										OFFSET 0 0 0
									}
								}
							}
						}
						JOINT LeftShoulder_virtual
						{
							OFFSET 0.000000 0.000000 0.000000
							CHANNELS 3 Xrotation Yrotation Zrotation
							JOINT LeftShoulder
							{
								OFFSET 6.197800 13.665199 -4.064700
								CHANNELS 3 Xrotation Yrotation Zrotation
								JOINT LeftArm
								{
									OFFSET 7.778100 -0.187103 -1.709300
									CHANNELS 3 Xrotation Yrotation Zrotation
									JOINT LeftForeArm
									{
										OFFSET 22.049376 0.000000 0.000000
										CHANNELS 3 Xrotation Yrotation Zrotation
										JOINT LeftHand
										{
											OFFSET 23.009392 0.000000 0.000000
											CHANNELS 3 Xrotation Yrotation Zrotation
											End Site
											{
												OFFSET 0 0 0
											}
										}
									}
								}
							}
						}
						JOINT RightShoulder_virtual
						{
							OFFSET 0.000000 0.000000 0.000000
							CHANNELS 3 Xrotation Yrotation Zrotation
							JOINT RightShoulder
							{
								OFFSET -6.197800 13.665199 -4.064700
								CHANNELS 3 Xrotation Yrotation Zrotation
								JOINT RightArm
								{
									OFFSET -7.778100 -0.187103 -1.709300
									CHANNELS 3 Xrotation Yrotation Zrotation
									JOINT RightForeArm
									{
										OFFSET -22.049376 0.000000 0.000000
										CHANNELS 3 Xrotation Yrotation Zrotation
										JOINT RightHand
										{
											OFFSET -23.009392 0.000000 0.000000
											CHANNELS 3 Xrotation Yrotation Zrotation
											End Site
											{
												OFFSET 0 0 0
											}
										}
									}
								}
							}
						}
					}
				}
			}
		}
	}
}
MOTION
Frames: 13
Frame Time: 0.03333333
5.126161 65.178009 109.823212 0.000000 0.000000 0.000000 8.413498 -20.108548 1.562126 16.062523 32.510198 11.689279 38.960721 19.470632 -5.856004 -22.901778 -6.051093 -26.395594 0.000000 0.000000 0.000000 8.413498 -20.108548 1.562126 -70.584295 -6.175398 -9.279106 63.809342 4.653516 -7.613715 -2.497812 7.385770 5.988446 0.000000 0.000000 0.000000 8.413498 -20.108548 1.562126 -0.000001 0.000000 0.000000 2.360228 -3.947746 1.043094 4.820221 -8.149187 2.085948 0.000000 0.000000 0.000000 4.820150 -8.149127 2.085945 9.532180 2.585902 14.901489 0.000000 0.000000 0.000000 4.820150 -8.149127 2.085945 -4.481863 -16.524620 -19.193559 -50.218256 -13.065791 -29.545353 -9.513735 -45.265118 18.313318 0.000000 0.000000 0.000000 4.820150 -8.149127 2.085945 0.026767 -1.767830 1.230269 -18.293038 31.587309 8.179642 40.535185 8.128190 -4.683263 0.000000 0.000000 0.000000 
4.571103 65.407990 111.810165 0.000000 0.000000 0.000000 10.272484 -19.155935 1.019947 16.177221 33.742296 12.692935 35.375216 21.334427 -5.963965 -19.338847 -7.237086 -26.387597 0.000000 0.000000 0.000000 10.272484 -19.155935 1.019947 -71.030607 -7.565341 -9.937772 65.540911 5.729882 -7.617726 -5.459170 6.109112 5.982484 0.000000 0.000000 0.000000 10.272484 -19.155935 1.019947 0.000000 0.000000 0.000000 2.372851 -4.955153 1.351583 4.899764 -10.154809 2.662432 0.000000 0.000000 0.000000 4.899743 -10.154738 2.662414 8.502571 4.160260 15.381256 0.000000 0.000000 0.000000 4.899743 -10.154738 2.662414 -5.170238 -18.664281 -18.158321 -46.432808 -18.052719 -34.485605 -9.204843 -38.217060 16.317045 0.000000 0.000000 0.000000 4.899743 -10.154738 2.662414 0.248728 -2.144181 4.457615 -14.470956 21.706638 4.671644 37.782267 8.308583 -4.381096 0.000000 0.000000 0.000000 
3.971853 65.696251 113.932800 0.000000 0.000000 0.000000 12.003859 -18.086281 0.456224 15.933520 34.780450 14.059600 32.090011 23.391701 -6.154780 -14.173968 -8.620383 -26.142132 0.000000 0.000000 0.000000 12.003859 -18.086281 0.456224 -70.947743 -8.634527 -10.440976 67.121054 7.165368 -7.582900 -8.572885 4.089455 5.951641 0.000000 0.000000 0.000000 12.003859 -18.086281 0.456224 0.000000 -0.000002 0.000000 2.382128 -5.849836 1.553841 4.960985 -11.924856 3.021995 0.000000 0.000000 0.000000 4.961000 -11.924943 3.022034 7.327453 5.709586 15.847449 0.000000 0.000000 0.000000 4.961000 -11.924943 3.022034 -5.400958 -20.399557 -16.650061 -43.348458 -23.388145 -38.897910 -9.093617 -31.903827 14.184716 0.000000 0.000000 0.000000 4.961000 -11.924943 3.022034 0.440960 -2.570727 6.867599 -12.839519 16.555900 3.599506 34.933672 8.728778 -3.601193 0.000000 0.000000 0.000000 
3.422849 65.934845 115.804840 0.000000 0.000000 0.000000 13.054261 -18.353657 -0.110884 15.993060 35.598693 15.345272 29.648069 25.241329 -6.382589 -6.999416 -10.324765 -26.437635 0.000000 0.000000 0.000000 13.054261 -18.353657 -0.110884 -70.164553 -9.153817 -9.723748 67.952452 7.007098 -7.634815 -11.057001 3.772037 6.156256 0.000000 0.000000 0.000000 13.054261 -18.353657 -0.110884 -0.000001 -0.000001 -0.000000 2.390473 -6.579487 1.727463 5.005433 -13.331985 3.278266 0.000000 0.000000 0.000000 5.005471 -13.331927 3.278247 6.051134 7.224982 16.300538 0.000000 0.000000 0.000000 5.005471 -13.331927 3.278247 -5.462530 -21.822304 -15.277262 -41.539855 -28.186698 -42.662666 -9.092993 -26.803768 12.045797 0.000000 0.000000 0.000000 5.005471 -13.331927 3.278247 0.571898 -3.041684 8.393499 -12.235276 14.739589 3.552623 31.986903 9.211512 -2.529626 0.000000 0.000000 0.000000 
2.864509 66.120697 117.611832 0.000000 0.000000 0.000000 14.274336 -20.316659 -0.651787 15.787093 36.315979 16.178160 27.731920 27.496159 -6.211449 2.269683 -12.107140 -25.675907 0.000000 0.000000 0.000000 14.274336 -20.316659 -0.651787 -69.264457 -8.873806 -7.112342 68.195942 6.408661 -7.692915 -13.006009 3.603989 6.565917 0.000000 0.000000 0.000000 14.274336 -20.316659 -0.651787 0.000000 0.000000 0.000001 2.394290 -7.067502 1.864601 5.020478 -14.261183 3.429290 0.000000 0.000000 0.000000 5.020472 -14.261193 3.429302 4.691620 8.689896 16.737242 0.000000 0.000000 0.000000 5.020472 -14.261193 3.429302 -5.471198 -22.929551 -14.228719 -41.478192 -31.387721 -45.804208 -9.131504 -23.397646 9.993892 0.000000 0.000000 0.000000 5.020472 -14.261193 3.429302 0.633979 -3.524497 9.224207 -11.604628 13.355094 3.496338 28.949405 9.599967 -1.419285 0.000000 0.000000 0.000000 
2.453225 66.114975 119.406723 0.000000 0.000000 0.000000 15.255195 -24.249779 -1.197332 15.110532 36.718851 16.613293 27.278266 28.418062 -5.919371 13.185154 -12.963567 -22.340294 0.000000 0.000000 0.000000 15.255195 -24.249779 -1.197332 -68.359969 -8.054239 -3.168493 68.271026 5.780093 -7.746189 -14.480631 4.059126 7.015490 0.000000 0.000000 0.000000 15.255195 -24.249779 -1.197332 -0.000001 0.000000 0.000000 2.391071 -7.264132 1.966404 4.996717 -14.597197 3.473516 0.000000 0.000000 0.000000 4.996700 -14.597159 3.473524 3.275431 10.090230 17.157577 0.000000 0.000000 0.000000 4.996700 -14.597159 3.473524 -5.377028 -23.703591 -13.318973 -42.422339 -33.040316 -48.437745 -9.159005 -21.147541 7.965485 0.000000 0.000000 0.000000 4.996700 -14.597159 3.473524 0.640808 -4.012258 9.540028 -11.078685 12.213170 3.421792 25.842343 9.919204 -0.268998 0.000000 0.000000 0.000000 
2.160039 66.004776 120.970474 0.000000 0.000000 0.000000 15.790639 -28.766195 -1.603961 13.146974 36.804942 17.078731 28.963287 28.470505 -5.813194 22.035655 -13.882023 -15.906095 0.000000 0.000000 0.000000 15.790639 -28.766195 -1.603961 -67.532491 -6.924666 0.810964 68.332785 5.262271 -7.791327 -15.559027 4.877412 7.429321 0.000000 0.000000 0.000000 15.790639 -28.766195 -1.603961 0.000000 -0.000001 0.000001 2.379423 -7.268488 2.015919 4.949409 -14.557136 3.451304 0.000000 0.000000 0.000000 4.949500 -14.557064 3.451253 1.848281 11.418510 17.555408 0.000000 0.000000 0.000000 4.949500 -14.557064 3.451253 -5.260872 -24.215811 -12.622901 -43.325290 -34.032565 -50.646129 -9.161596 -19.209412 5.890500 0.000000 0.000000 0.000000 4.949500 -14.557064 3.451253 0.611438 -4.493424 9.521965 -10.726412 11.287643 3.333757 22.686403 10.184599 0.886039 0.000000 0.000000 0.000000 
1.886204 65.871475 122.558502 0.000000 0.000000 0.000000 16.211864 -33.354973 -1.974392 10.884066 37.097407 16.714598 29.586235 26.181882 -4.850123 29.659089 -13.699971 -8.059470 0.000000 0.000000 0.000000 16.211864 -33.354973 -1.974392 -66.718258 -6.139356 4.222726 68.425081 5.188490 -7.800075 -16.622662 6.054630 7.771310 0.000000 0.000000 0.000000 16.211864 -33.354973 -1.974392 0.000000 -0.000003 0.000000 2.366386 -7.230431 2.045706 4.901198 -14.438192 3.413747 0.000000 0.000000 0.000000 4.901237 -14.438151 3.413741 0.438228 12.660390 17.929924 0.000000 0.000000 0.000000 4.901237 -14.438151 3.413741 -5.157790 -24.333211 -12.292904 -44.167763 -34.537637 -52.409828 -9.134706 -17.605765 3.835008 0.000000 0.000000 0.000000 4.901237 -14.438151 3.413741 0.571545 -4.957458 9.352155 -10.481185 10.565222 3.211347 19.502972 10.395746 1.972019 0.000000 0.000000 0.000000 
1.639175 65.974831 124.181702 0.000000 0.000000 0.000000 16.058898 -37.486493 -2.305372 7.960583 37.112181 17.399390 33.880559 24.271233 -4.891764 33.006056 -12.780104 0.435655 0.000000 0.000000 0.000000 16.058898 -37.486493 -2.305372 -65.224263 -5.414411 6.730757 68.153198 5.321755 -7.783609 -17.597646 7.536029 7.845990 0.000000 0.000000 0.000000 16.058898 -37.486493 -2.305372 -0.000001 0.000003 -0.000001 2.356177 -7.159590 2.086454 4.856838 -14.245403 3.376864 0.000000 0.000000 0.000000 4.856849 -14.245405 3.376852 -0.928845 13.801731 18.277026 0.000000 0.000000 0.000000 4.856849 -14.245405 3.376852 -5.063968 -24.237573 -12.155202 -44.967749 -34.731802 -53.731681 -9.076193 -16.358855 1.865137 0.000000 0.000000 0.000000 4.856849 -14.245405 3.376852 0.552834 -5.392396 9.213438 -10.433969 10.037431 2.968410 16.313893 10.563886 2.869113 0.000000 0.000000 0.000000 
1.398610 66.329865 125.779861 0.000000 0.000000 0.000000 15.685360 -40.522618 -2.519532 5.566237 36.986827 18.408395 37.703348 23.410294 -4.829287 33.782348 -12.466180 4.631045 0.000000 0.000000 0.000000 15.685360 -40.522618 -2.519532 -63.258740 -4.093806 8.387403 67.362672 5.321169 -7.739067 -18.603082 8.538151 8.366936 0.000000 0.000000 0.000000 15.685360 -40.522618 -2.519532 0.000001 -0.000001 0.000000 2.342592 -7.054575 2.088006 4.808409 -13.989914 3.304514 0.000000 0.000000 0.000000 4.808430 -13.990113 3.304596 -2.213177 14.832830 18.592244 0.000000 0.000000 0.000000 4.808430 -13.990113 3.304596 -5.014287 -24.209495 -12.063864 -45.768541 -34.792386 -54.633013 -8.986524 -15.490765 0.047441 0.000000 0.000000 0.000000 4.808430 -13.990113 3.304596 0.548281 -5.780493 9.082009 -10.753131 9.687312 2.595241 13.138236 10.738103 3.535812 0.000000 0.000000 0.000000 
1.161800 66.746086 127.332520 0.000000 0.000000 0.000000 15.242754 -43.095307 -2.587844 0.885237 36.146092 21.287743 44.983657 23.594409 -4.726989 31.505146 -12.207300 6.105548 0.000000 0.000000 0.000000 15.242754 -43.095307 -2.587844 -61.315523 -2.496592 9.642326 66.473880 5.197129 -7.705826 -19.579876 9.382088 8.923197 0.000000 0.000000 0.000000 15.242754 -43.095307 -2.587844 0.000001 0.000000 0.000000 2.326552 -6.915968 2.050671 4.752543 -13.680854 3.176795 0.000000 0.000000 0.000000 4.752531 -13.680830 3.176804 -3.395931 15.736626 18.871225 0.000000 0.000000 0.000000 4.752531 -13.680830 3.176804 -4.920279 -24.140037 -11.903081 -46.627710 -34.897144 -55.148033 -8.868294 -15.022074 -1.550414 0.000000 0.000000 0.000000 4.752531 -13.680830 3.176804 0.526947 -6.125604 8.814411 -11.604218 9.556549 2.228957 9.990249 10.990795 3.996292 0.000000 0.000000 0.000000 
0.909089 67.269806 129.040085 0.000000 0.000000 0.000000 14.768944 -45.461654 -2.486815 -5.707042 34.354605 25.674290 55.093607 24.691211 -4.550915 25.176530 -11.632015 5.456359 0.000000 0.000000 0.000000 14.768944 -45.461654 -2.486815 -59.155749 -0.619001 10.413873 65.342924 5.120379 -7.654021 -20.642066 10.203353 9.586431 0.000000 0.000000 0.000000 14.768944 -45.461654 -2.486815 0.000001 0.000003 -0.000000 2.303858 -6.736505 1.945272 4.695489 -13.322001 3.018852 0.000000 0.000000 0.000000 4.695420 -13.321820 3.018839 -4.429387 16.505511 19.109570 0.000000 0.000000 0.000000 4.695420 -13.321820 3.018839 -4.736583 -24.033776 -11.562546 -47.608655 -35.222500 -55.319126 -8.725323 -14.972058 -2.859719 0.000000 0.000000 0.000000 4.695420 -13.321820 3.018839 0.489546 -6.448417 8.415423 -12.910701 9.604475 1.956865 6.881784 11.381481 4.245365 0.000000 0.000000 0.000000 
0.663978 67.828957 130.635117 0.000000 0.000000 0.000000 14.517704 -47.113501 -2.267121 -12.355092 31.952909 29.856341 63.908379 25.524748 -4.176300 18.229459 -10.546780 6.176264 0.000000 0.000000 0.000000 14.517704 -47.113501 -2.267121 -57.153664 1.371931 10.857908 64.015470 4.851989 -7.606128 -21.623696 10.607375 10.376458 0.000000 0.000000 0.000000 14.517704 -47.113501 -2.267121 0.000000 -0.000002 0.000000 2.278880 -6.526378 1.806569 4.637106 -12.920119 2.830863 0.000000 0.000000 0.000000 4.637101 -12.920110 2.830900 -5.288215 17.126202 19.301857 0.000000 0.000000 0.000000 4.637101 -12.920110 2.830900 -4.487495 -23.889621 -11.094538 -48.774698 -35.941801 -55.192512 -8.562998 -15.358746 -3.810831 0.000000 0.000000 0.000000 4.637101 -12.920110 2.830900 0.436824 -6.769494 7.889748 -14.568650 9.698940 1.752950 3.821574 11.976859 4.334196 0.000000 0.000000 0.000000 
